<?xml version="1.0" encoding="UTF-8" standalone="no"?>
<!-- Created with Inkscape (http://www.inkscape.org/) -->

<svg
   version="1.1"
   id="svg2"
   width="450.66666"
   height="600"
   sodipodi:docname="header.svg"
   inkscape:version="1.1 (c68e22c387, 2021-05-23)"
   xmlns:inkscape="http://www.inkscape.org/namespaces/inkscape"
   xmlns:sodipodi="http://sodipodi.sourceforge.net/DTD/sodipodi-0.dtd"
   xmlns="http://www.w3.org/2000/svg"
   xmlns:svg="http://www.w3.org/2000/svg">
  <defs
     id="defs6">
    <inkscape:path-effect
       effect="fill_between_many"
       method="originald"
       linkedpaths="#a3299,0,1|"
       id="path-effect6788" />
  </defs>
  <sodipodi:namedview
     id="namedview4"
     pagecolor="#ffffff"
     bordercolor="#666666"
     borderopacity="1.0"
     inkscape:pageshadow="2"
     inkscape:pageopacity="0.0"
     inkscape:pagecheckerboard="0"
     showgrid="false"
     inkscape:zoom="4.1153615"
     inkscape:cx="224.76762"
     inkscape:cy="303.37554"
     inkscape:window-width="2560"
     inkscape:window-height="1385"
     inkscape:window-x="-8"
     inkscape:window-y="-8"
     inkscape:window-maximized="1"
     inkscape:current-layer="g8" />
  <g
     inkscape:groupmode="layer"
     inkscape:label="Image"
     id="g8">
    <path
       inkscape:original-d="M 0,0"
       inkscape:path-effect="#path-effect6788"
       d="M 0,0"
       id="path6790" />
    <a
       id="a3299">
      <path
         id="path1141"
         style="fill:#000000;stroke-width:1.33333"
         d="M 218.54688 234.65039 A 50.594574 50.413116 0 0 0 216.13086 235.17383 C 216.34897 238.34397 216.54099 241.55081 216.62109 244.39453 C 216.96827 256.71909 218.27829 259.84852 224.34375 262.83789 C 230.07457 265.66233 230.01008 265.67067 234.8418 261.35352 C 238.84188 257.77944 239.00426 257.2137 239.3125 245.6875 C 239.40283 242.30971 239.63276 238.73149 239.89453 235.29883 A 50.594574 50.413116 0 0 0 237.61133 234.78125 C 237.38675 239.16853 237.234 243.61413 237.32422 246.69727 C 237.55821 254.69347 237.22094 256.031 234.2207 259.03125 C 229.8459 263.40605 227.40831 263.27354 222.53711 258.40234 C 218.77982 254.64489 218.55841 253.84161 218.76953 244.73633 C 218.83533 241.8976 218.7172 238.27815 218.54688 234.65039 z M 210.19531 236.93164 A 50.594574 50.413116 0 0 0 207.74219 237.84375 C 207.84514 240.03128 207.89216 241.68206 207.7832 241.79102 C 207.65024 241.92398 207.29827 240.3248 206.88281 238.16211 A 50.594574 50.413116 0 0 0 205.13867 239.04102 C 205.3042 240.57255 205.2587 242.36211 204.98438 243.41016 C 204.65066 244.68495 204.3895 243.32786 204.4043 240.39453 C 204.40651 239.95681 204.43625 239.76677 204.44922 239.41602 A 50.594574 50.413116 0 0 0 199.30664 242.38281 C 199.64849 246.8565 199.90976 252.54542 199.95117 257.74805 C 200.08172 274.16087 201.07749 277.02518 210.99805 289.52734 C 213.99544 293.30473 218.09725 300.05691 220.11328 304.53125 C 226.04441 317.6947 230.27303 317.32235 236.86328 303.05859 C 239.29661 297.79196 242.26074 292.67579 243.44922 291.68945 C 249.61598 286.57149 255.85299 268.15643 257.2793 250.85742 L 257.85742 243.85352 A 50.594574 50.413116 0 0 0 255.4668 242.16992 C 255.23623 244.65616 255.01501 246.92097 254.75977 249.98828 C 253.2334 268.33096 250.77581 277.12192 244.75977 285.75 C 242.21125 289.40504 239.14112 295.53887 236.26562 300.39453 C 233.8679 304.44344 233.12642 310.05118 228.96289 312.47656 C 227.03069 313.60213 225.34493 311.7313 223.91016 308.0625 C 220.78484 300.07082 217.81923 294.90311 212.28906 287.80859 C 203.48438 276.5133 203.15668 275.42982 202.38086 255.0625 C 202.06273 246.71037 201.91738 242.35844 201.99023 241.4375 C 202.06313 240.51656 202.3541 243.0253 202.9082 248.39453 C 204.65601 265.33073 207.09667 272.67077 213.54688 280.39453 C 220.13718 288.28605 223.99856 296.16578 224.03906 301.80664 C 224.07706 307.10119 226.14586 309.61859 228.60742 310.68945 C 230.2748 311.41482 231.25473 308.09164 232.03906 306.45117 C 232.73346 304.9988 233.05273 301.72852 233.05273 301.72852 C 233.73095 294.76429 234.21346 293.83471 242.64844 283.19922 C 249.28605 274.82996 251.6441 266.89116 253.4043 246.99023 C 253.57764 245.03035 253.7745 243.09765 253.98047 241.23047 A 50.594574 50.413116 0 0 0 251.58398 239.8457 C 251.56275 239.97713 251.49961 240.28798 251.48438 240.39453 C 251.29518 241.71705 251.24388 241.10263 251.26367 239.66992 A 50.594574 50.413116 0 0 0 245.91797 237.23633 C 245.74016 238.926 245.55428 240.55433 245.39258 242.33008 C 243.71056 260.80157 242.11304 265.92719 236.7168 270.17188 C 230.4524 275.09947 221.17585 272.68289 216.38672 264.87695 C 214.0575 261.0805 211.86346 250.54274 210.19531 236.93164 z M 226.21875 239.72852 C 224.7959 239.72852 224.40007 241.18383 224.67969 245.39453 C 224.88663 248.51119 225.13382 251.25704 225.22852 251.49414 C 225.76036 252.82619 230.10084 250.69969 230.43945 248.94141 C 231.06777 245.67875 228.34174 239.72852 226.21875 239.72852 z M 198.28516 243.14453 A 50.594574 50.413116 0 0 0 195.91602 244.91211 C 195.87001 257.00696 194.49544 262.55157 191.3125 263.76172 C 186.87393 265.44926 185.51477 268.69366 186.99609 274.05859 C 187.69199 276.57889 187.92678 280.83497 187.51758 283.51758 C 187.10838 286.20021 187.23481 290.47395 187.79883 293.01367 C 188.56359 296.45734 188.19122 298.82895 186.33398 302.3457 C 185.04246 304.79128 184.44777 306.73963 184.32227 310.32031 A 50.594574 50.413116 0 0 0 186.65625 313.72461 C 186.69503 309.10644 187.22681 305.26297 188.375 302.97852 C 190.20492 299.33768 190.3771 290.71328 189.01172 271.0625 C 188.79264 267.90957 189.27762 267.0625 191.29688 267.0625 C 193.20439 267.0625 194.79187 269.34343 197.51758 275.99414 C 199.53087 280.90656 203.12308 287.74925 205.49805 291.20117 C 214.43333 304.18815 216.57555 315.65754 212.91016 332.42188 A 50.594574 50.413116 0 0 0 215.0332 332.93164 C 216.64343 326.34522 217.45597 319.73612 216.86719 314.72656 L 215.98633 307.23633 L 219.48438 312.39062 C 222.59866 316.97978 222.88471 318.35857 222.10156 324.9707 C 221.73467 328.06835 221.20001 331.06638 220.49219 334.08594 A 50.594574 50.413116 0 0 0 222.8418 334.25391 C 223.61558 330.86057 224.05011 327.60072 224.25781 324.05664 C 224.44065 320.93685 224.9964 318.83751 225.49414 319.39062 C 226.28665 320.27129 225.79939 326.85338 224.69727 334.38477 A 50.594574 50.413116 0 0 0 227.39648 334.57617 C 227.5509 333.3581 227.69162 332.32949 227.84961 331.0625 C 228.70568 324.19719 228.87911 324.21263 229.52148 334.43945 A 50.594574 50.413116 0 0 0 232.38867 334.23633 C 232.19268 332.23223 232.06836 330.22481 232.06836 328.16797 C 232.06836 322.54867 232.31389 318.20032 232.61523 318.50586 C 232.91655 318.81142 234.13372 323.86185 235.31836 329.72852 C 235.59247 331.08598 235.91841 332.41453 236.25391 333.73438 A 50.594574 50.413116 0 0 0 238.41797 333.26367 C 238.31007 332.77873 238.19526 332.33317 238.08984 331.83203 C 235.00434 317.1641 235.37042 312.53608 240.02734 307.41602 L 243.98828 303.0625 L 242.69531 307.7207 C 240.70105 314.90022 241.46999 324.14138 243.86133 331.75781 A 50.594574 50.413116 0 0 0 246.01367 330.95703 C 244.55363 326.19082 243.60606 320.82238 243.64258 316.39453 C 243.68578 311.15325 245.06202 307.02093 250.08203 297.0625 C 253.5939 290.09584 257.57114 281.39519 258.91992 277.72852 L 261.37109 271.0625 L 260.53516 285.20117 C 259.74786 298.51862 259.87762 299.57789 262.74414 303.45508 C 265.42552 307.08183 265.68086 308.62847 265.07422 317.83984 A 50.594574 50.413116 0 0 0 267.82227 314.40039 C 267.72363 308.90653 266.47255 304.60017 264.0332 301.30078 C 260.99675 297.19376 260.9803 296.97992 262.72852 283.77148 C 264.15869 272.96652 264.17586 269.6978 262.81641 266.73242 C 261.88627 264.70346 260.9594 256.50405 260.74414 248.39453 L 260.68359 246.14258 A 50.594574 50.413116 0 0 0 258.57422 244.41211 L 258.78711 251.0625 C 259.02155 258.39584 259.06664 266.45205 258.88672 268.9668 C 258.29716 277.20744 250.63014 293.01762 243.37305 300.95508 C 239.63159 305.04731 235.20742 310.64453 233.54297 313.39453 C 230.04874 319.16769 228.24148 319.56923 224.53906 315.39453 C 218.77373 308.89374 203.40466 284.09994 199.75195 275.40625 C 196.05906 266.61689 195.95382 265.80811 197.33984 256.875 C 197.9245 253.10708 198.27284 247.69876 198.28516 243.14453 z M 247.6582 245.02344 C 247.76842 245.21505 247.80784 246.83794 247.87695 249.72852 C 248.06261 257.49305 245.25649 269.04765 241.9668 274.06836 C 240.70297 275.9972 237.82615 279.25976 235.57227 281.31836 C 233.3184 283.37696 230.29744 285.0625 228.85938 285.0625 C 227.42132 285.0625 223.38818 282.09908 219.89844 278.47852 C 212.97912 271.29986 209.83463 263.39931 208.7168 250.39453 C 208.15085 243.81023 208.28001 244.0667 209.97852 252.89453 C 212.21551 264.52097 217.06452 271.5275 224.63281 274.0625 C 230.80057 276.12839 234.93275 275.16596 239.50781 270.59766 C 244.0152 266.09694 245.39181 262.47655 246.67969 251.72852 C 247.19429 247.43396 247.45439 245.28153 247.60547 245.0293 C 247.62435 244.99777 247.64246 244.99606 247.6582 245.02344 z M 205.50195 245.72852 L 206.75586 253.72852 C 207.44547 258.12852 209.01609 264.3934 210.24609 267.65039 C 212.8834 274.63387 221.19685 284.1007 226.6875 286.375 C 230.23167 287.84304 231.02817 287.61925 235.76758 283.81055 C 240.97946 279.62218 246.08552 271.95164 248.0957 265.29297 C 248.91617 262.5752 249.19594 262.3615 249.27344 264.39453 C 249.43824 268.72105 243.52133 279.91571 237.4668 286.73047 C 232.86566 291.90935 231.6549 294.4048 230.8418 300.39648 C 229.22091 312.34092 228.29272 311.93324 225.43945 298.02148 C 224.20351 291.99532 222.31442 288.38641 216.78125 281.48633 C 208.94262 271.71125 207.02198 266.80746 206.11523 254.23242 L 205.50195 245.72852 z M 193.88281 246.54883 A 50.594574 50.413116 0 0 0 191.12305 249.29883 C 190.80048 250.66818 190.42551 252.07228 189.98828 253.35547 C 188.84462 256.71198 186.74527 260.51299 185.32227 261.80078 C 181.94496 264.8572 182.03775 263.17266 185.56055 257.47266 C 186.21833 256.40835 186.96045 254.88702 187.67383 253.26562 A 50.594574 50.413116 0 0 0 176.89844 284.17188 A 50.594574 50.413116 0 0 0 178.90234 298.16992 C 179.23881 293.94748 179.62763 289.84794 179.98242 287.0625 L 181.17188 277.72852 L 180.52148 289.0625 C 180.33606 292.29519 180.03322 296.38877 179.70117 300.39062 A 50.594574 50.413116 0 0 0 181.26367 304.55859 C 181.34038 303.99693 181.3997 303.37508 181.50195 302.90625 C 182.82975 296.81849 184.29484 278.71194 184.18164 269.78125 C 184.15414 267.61 185.24588 264.61065 186.60938 263.11523 C 190.33491 259.02923 192.58249 253.93205 193.88281 246.54883 z M 227.23828 246.91406 C 227.7242 246.93046 228.06836 247.45895 228.06836 248.31641 C 228.06836 250.65845 227.26798 251.00368 226.125 249.1543 C 225.70308 248.47163 225.96759 247.53679 226.71289 247.07617 C 226.89921 246.96102 227.07631 246.90861 227.23828 246.91406 z M 261.88281 247.20898 C 262.95929 256.70493 264.08521 261.30861 265.73438 262.94141 C 267.64134 264.82945 268.06836 267.64562 268.06836 278.3457 C 268.06836 288.54192 268.65112 292.72349 270.70508 297.25 C 271.876 299.83048 272.61246 302.74612 272.98242 306.08398 A 50.594574 50.413116 0 0 0 274.55273 302.3418 C 274.23499 300.69414 273.52656 298.59223 272.70117 296.99609 C 270.85089 293.41805 269.57079 275.11476 271.06641 273.61914 C 271.38325 273.30229 272.71193 280.27254 274.01953 289.10938 C 274.6365 293.27892 275.10273 297.10602 275.39062 300.10547 A 50.594574 50.413116 0 0 0 278.08789 284.17188 A 50.594574 50.413116 0 0 0 271.47852 259.28906 C 271.66233 259.97712 271.74792 260.49427 271.63867 260.60352 C 271.14091 261.10128 269.31458 257.35322 268.50977 254.67773 A 50.594574 50.413116 0 0 0 264.91406 250.24805 C 264.95714 250.48821 264.99412 250.61238 265.04297 250.94141 C 265.3598 253.07552 266.55212 256.24558 267.69141 257.98438 C 270.16509 261.75968 269.61201 262.82249 266.39844 260.47266 C 264.72576 259.24957 264.12425 257.11558 264.26758 252.91602 C 264.32346 251.27816 264.39103 250.35656 264.4707 249.7832 A 50.594574 50.413116 0 0 0 261.88281 247.20898 z M 250.06836 251.14258 C 250.09178 251.12703 250.1153 251.13756 250.14062 251.17578 C 250.20812 251.27771 250.28081 251.57339 250.35742 252.08008 C 250.664 254.10682 250.65634 257.10813 250.33984 258.74805 C 250.02336 260.38797 249.7742 258.72915 249.7832 255.0625 C 249.7902 252.65626 249.90443 251.25143 250.06836 251.14258 z M 270.02344 264.34375 C 270.10384 264.37365 270.19269 264.49935 270.28516 264.72852 C 270.65504 265.64519 270.65504 267.14584 270.28516 268.0625 C 269.91528 268.97917 269.61133 268.22786 269.61133 266.39453 C 269.61133 265.01953 269.78228 264.25391 270.02344 264.34375 z M 182.04102 267.95898 C 182.06559 267.94932 182.09068 267.96053 182.11719 267.99414 C 182.18789 268.08374 182.26402 268.3295 182.34375 268.74414 C 182.66267 270.40268 182.65009 272.80334 182.31641 274.07812 C 181.98269 275.35291 181.72348 273.99582 181.73828 271.0625 C 181.74799 269.1375 181.869 268.02662 182.04102 267.95898 z M 179.2207 270.85742 C 179.3416 270.87566 179.48492 271.07964 179.64453 271.47852 C 180.02975 272.44101 179.98212 273.59209 179.53906 274.03516 C 179.096 274.47821 178.78194 273.69071 178.83984 272.28516 C 178.87184 271.50852 178.96723 271.04058 179.10742 270.90039 C 179.14247 270.86534 179.1804 270.85134 179.2207 270.85742 z M 276.68945 288.34375 C 276.76985 288.37365 276.8587 288.49935 276.95117 288.72852 C 277.32105 289.64519 277.32105 291.14584 276.95117 292.0625 C 276.58129 292.97917 276.2793 292.22786 276.2793 290.39453 C 276.2793 289.01953 276.44829 288.25391 276.68945 288.34375 z M 197.58203 303.98828 C 197.25435 303.94143 196.92836 303.9437 196.60547 303.99414 C 195.05557 304.23625 193.55525 305.59821 192.05273 308.0625 C 190.64694 310.36818 189.86866 313.7701 189.63672 317.56445 A 50.594574 50.413116 0 0 0 191.18359 319.10547 C 191.09779 317.62291 191.08439 316.28579 191.25195 315.39258 C 192.25436 310.04928 194.04511 307.15246 196.12891 306.78711 C 198.21271 306.42176 200.58909 308.58838 202.76172 313.375 C 204.82109 317.91213 205.57573 323.74934 205.01367 329.23438 A 50.594574 50.413116 0 0 0 206.94727 330.20508 C 207.75543 323.82698 207.15578 316.26628 205.00977 312.1875 C 202.29729 307.03211 199.87578 304.31626 197.58203 303.98828 z " />
    </a>
  </g>
</svg>
